<svg xmlns="http://www.w3.org/2000/svg" xmlns:xlink="http://www.w3.org/1999/xlink" width="1220" height="667.88"><rect width="1220" height="667.88" rx="5" ry="5" class="a"/><svg y="0%" x="0%"><circle cx="20" cy="20" r="6" fill="#ff5f58"/><circle cx="40" cy="20" r="6" fill="#ffbd2e"/><circle cx="60" cy="20" r="6" fill="#18c132"/></svg><svg height="607.88" viewBox="0 0 118 60.788" width="1180" x="15" xmlns="http://www.w3.org/2000/svg" xmlns:xlink="http://www.w3.org/1999/xlink" y="50"><style>@keyframes k{0%{transform:translateX(0)}3.2%{transform:translateX(-118px)}38.8%{transform:translateX(-944px)}38.9%{transform:translateX(-1062px)}60.9%{transform:translateX(-1180px)}65.4%{transform:translateX(-1298px)}65.7%{transform:translateX(-1416px)}to{transform:translateX(-1534px)}}.a{fill:#282d35}.g,.h{white-space:pre}.g{fill:#a8cc8c;font-weight:700}.h{fill:#b9c0cb}</style><g font-family="Monaco,Consolas,Menlo,'Bitstream Vera Sans Mono','Powerline Symbols',monospace" font-size="1.67"><defs><symbol id="1"><text y="1.67" style="white-space:pre" fill="#66c2cd" font-weight="700">~</text></symbol><symbol id="2"><text y="1.67" class="g">❯</text></symbol><symbol id="3"><text y="1.67" class="g">❯</text><text x="2.004" y="1.67" class="h">curl</text><text x="7.014" y="1.67" class="h">&quot;https://sgvd-sunset.herokuapp.com/sunrise?lat=50.93134&amp;lon=5.40244&amp;date=2021-11-23&quot;</text></symbol><symbol id="4"><text y="1.67" class="h">{&quot;datetime&quot;:&quot;2021-11-23T08:07:53.110448+01:00&quot;,&quot;location&quot;:{&quot;latitude&quot;:50.93134,&quot;longitude&quot;:5.40244}}</text></symbol><symbol id="a"><path fill="transparent" d="M0 0h118v28H0z"/></symbol><symbol id="b"><path fill="#6f7683" d="M0 0h1.102v2.171H0z"/></symbol></defs><path class="a" d="M0 0h118v60.788H0z"/><g style="animation-duration:7.687338s;animation-iteration-count:infinite;animation-name:k;animation-timing-function:steps(1,end)"><svg width="1652"><svg><use xlink:href="#a"/><use xlink:href="#b" x="-.004"/></svg><svg x="118"><use xlink:href="#a"/><use xlink:href="#b" x="1.996" y="4.317"/><use xlink:href="#1" y="2.171"/><use xlink:href="#2" y="4.342"/></svg><svg x="236"><use xlink:href="#a"/><use xlink:href="#b" x="15.996" y="4.317"/><use xlink:href="#1" y="2.171"/><text y="6.012" class="g">❯</text><text x="2.004" y="6.012" class="h">curl</text><text x="7.014" y="6.012" class="h">&quot;https://</text></svg><svg x="354"><use xlink:href="#a"/><use xlink:href="#b" x="30.996" y="4.317"/><use xlink:href="#1" y="2.171"/><text y="6.012" class="g">❯</text><text x="2.004" y="6.012" class="h">curl</text><text x="7.014" y="6.012" class="h">&quot;https://sgvd-sunset.her</text></svg><svg x="472"><use xlink:href="#a"/><use xlink:href="#b" x="44.996" y="4.317"/><use xlink:href="#1" y="2.171"/><text y="6.012" class="g">❯</text><text x="2.004" y="6.012" class="h">curl</text><text x="7.014" y="6.012" class="h">&quot;https://sgvd-sunset.herokuapp.com/sun</text></svg><svg x="590"><use xlink:href="#a"/><use xlink:href="#b" x="56.996" y="4.317"/><use xlink:href="#1" y="2.171"/><text y="6.012" class="g">❯</text><text x="2.004" y="6.012" class="h">curl</text><text x="7.014" y="6.012" class="h">&quot;https://sgvd-sunset.herokuapp.com/sunrise?lat=50.</text></svg><svg x="708"><use xlink:href="#a"/><use xlink:href="#b" x="67.996" y="4.317"/><use xlink:href="#1" y="2.171"/><text y="6.012" class="g">❯</text><text x="2.004" y="6.012" class="h">curl</text><text x="7.014" y="6.012" class="h">&quot;https://sgvd-sunset.herokuapp.com/sunrise?lat=50.93134&amp;lon=5</text></svg><svg x="826"><use xlink:href="#a"/><use xlink:href="#b" x="71.996" y="4.317"/><use xlink:href="#1" y="2.171"/><text y="6.012" class="g">❯</text><text x="2.004" y="6.012" class="h">curl</text><text x="7.014" y="6.012" class="h">&quot;https://sgvd-sunset.herokuapp.com/sunrise?lat=50.93134&amp;lon=5.402</text></svg><svg x="944"><use xlink:href="#a"/><use xlink:href="#b" x="86.996" y="4.317"/><use xlink:href="#1" y="2.171"/><text y="6.012" class="g">❯</text><text x="2.004" y="6.012" class="h">curl</text><text x="7.014" y="6.012" class="h">&quot;https://sgvd-sunset.herokuapp.com/sunrise?lat=50.93134&amp;lon=5.40244&amp;date=2021-11</text></svg><svg x="1062"><use xlink:href="#a"/><use xlink:href="#b" x="90.996" y="4.317"/><use xlink:href="#1" y="2.171"/><use xlink:href="#3" y="4.342"/></svg><svg x="1180"><use xlink:href="#a"/><use xlink:href="#b" x="-.004" y="6.488"/><use xlink:href="#1" y="2.171"/><use xlink:href="#3" y="4.342"/></svg><svg x="1298"><use xlink:href="#a"/><use xlink:href="#b" x="-.004" y="8.659"/><use xlink:href="#1" y="2.171"/><use xlink:href="#3" y="4.342"/><use xlink:href="#4" y="6.513"/></svg><svg x="1416"><use xlink:href="#a"/><use xlink:href="#b" x="1.996" y="13.001"/><use xlink:href="#1" y="2.171"/><use xlink:href="#3" y="4.342"/><use xlink:href="#4" y="6.513"/><use xlink:href="#1" y="10.855"/><use xlink:href="#2" y="13.026"/></svg><svg x="1534"><use xlink:href="#a"/><use xlink:href="#b" x="-.004" y="15.172"/><use xlink:href="#1" y="2.171"/><use xlink:href="#3" y="4.342"/><use xlink:href="#4" y="6.513"/><use xlink:href="#1" y="10.855"/><text y="14.696" class="g">❯</text><text x="2.004" y="14.696" class="h">exit</text></svg></svg></g></g></svg></svg>